<?xml version="1.0" encoding="UTF-8"?>
<svg width="444px" height="459px" viewBox="0 0 444 459" version="1.1" xmlns="http://www.w3.org/2000/svg" xmlns:xlink="http://www.w3.org/1999/xlink">
    <!-- Generator: sketchtool 55.2 (78181) - https://sketchapp.com -->
    <title>E36AF0C0-F255-43BF-91CA-AA80FF466EC0</title>
    <desc>Created with sketchtool.</desc>
    <g id="Landing-Screen" stroke="none" stroke-width="1" fill="none" fill-rule="evenodd">
        <g id="HYN_WhyHyundai_HappyDrivers_1680" transform="translate(-1104.000000, -3374.000000)" fill="#00AAD2">
            <g id="ASSURANCE" transform="translate(0.000000, 2930.000000)">
                <g id="Icon" transform="translate(1104.000000, 444.000000)">
                    <path d="M347.216243,381.990061 C354.932851,382.986719 359.391585,385.00439 363.355737,387.970947 C369.438724,392.518668 380.927458,399.537428 384.606851,402.089959 C387.595889,404.163833 387.573408,409.775656 380.020724,407.253099 C372.467104,404.727732 362.821813,399.119656 360.505332,398.033073 C352.251053,394.159782 343.957433,389.327301 342.78842,387.626238 C341.559458,385.834314 339.342268,380.973732 347.216243,381.990061" id="Fill-1"></path>
                    <path d="M262.782524,437.195559 C263.080397,434.313306 263.012954,420.764749 263.270549,419.330648 C263.270549,419.330648 263.79698,416.101813 266.133132,415.865762 C268.266954,415.648446 269.392878,417.801003 269.385385,419.519863 C269.376954,421.239661 270.139435,433.150851 269.908068,436.921104 C269.337613,446.230116 268.348448,452.187585 267.615942,456.396218 C267.328372,458.055129 266.0966,458.984344 264.935081,458.609661 C263.407309,458.116015 262.898676,457.04723 262.717891,454.928395 C262.685106,454.550901 262.483714,440.078749 262.782524,437.195559" id="Fill-3"></path>
                    <path d="M91.5688177,172.531375 C104.376438,132.925451 135.782413,140.395704 164.182489,145.827678 C192.581628,151.261527 224.456894,185.246261 224.456894,185.246261 C226.314387,186.946387 226.913881,188.375805 232.868539,182.389299 C234.253932,180.995476 234.888084,178.662134 233.763096,176.818691 C223.567957,160.101248 231.469096,128.597856 251.415375,102.186413 C276.372109,69.145881 311.868691,59.236438 342.856894,86.2745392 C384.418666,122.536413 372.248008,172.677501 361.923603,195.551932 C347.384944,227.763476 314.445577,266.372742 305.249906,303.976919 C296.055172,341.58297 299.274641,374.654413 299.274641,374.654413 C264.482463,359.081628 240.492413,344.279754 226.752767,336.917223 C211.139704,328.551476 174.535932,307.887678 135.563223,280.588235 C106.595501,260.299122 80.4463367,206.926387 91.5688177,172.531375 M160.132159,312.359527 C171.482261,319.417628 238.250868,352.217425 250.359704,359.720463 C262.468539,367.220691 289.955324,383.425754 294.401881,387.660615 C298.846565,391.896413 301.672615,393.857881 306.248438,393.17783 C310.824261,392.495906 314.092438,387.788008 313.253147,379.654565 C312.414792,371.522995 309.917527,323.095147 327.45459,284.468084 C356.708008,220.034691 375.418767,205.903501 380.327122,170.572716 C383.093223,150.655476 386.400742,96.9089949 345.836565,72.9404886 C305.440995,49.0712734 246.437704,56.8834253 216.002159,162.22102 C216.002159,162.22102 178.663071,133.868716 154.67302,130.570565 C126.952995,126.760033 71.3630709,136.265754 81.6556278,203.7294 C92.9364127,277.662894 148.782058,305.300489 160.132159,312.359527" id="Fill-5"></path>
                    <path d="M175.739041,71.6998177 C177.423243,77.0924506 179.741597,84.397843 180.481597,88.7085772 C181.222534,93.0221215 181.853876,99.0723241 180.798205,100.598223 C179.583294,102.353615 176.278585,103.033666 174.866965,100.591666 C173.457218,98.1506025 172.889572,93.091438 171.891977,88.7919443 C170.559977,83.065843 168.490787,76.2625266 167.278686,70.6001215 C165.840838,63.8764253 165.029648,60.3225519 164.430154,57.786881 C163.954306,55.7804506 166.630484,51.6579949 169.529597,56.158881 C169.529597,56.158881 173.560256,64.7241468 175.739041,71.6998177" id="Fill-7"></path>
                    <path d="M261.582319,24.8131367 C260.931306,30.6675671 260.825458,40.7577949 260.57442,44.1758456 C260.369281,46.9559975 256.34799,50.4133899 254.924192,45.0741494 C253.499458,39.7339722 253.38518,31.4394152 253.17161,29.6072127 C252.412876,23.0820987 252.320142,15.9443772 253.037661,14.3060734 C253.792648,12.5825291 256.318015,8.46944051 258.958597,13.0387063 C261.544851,17.515238 262.008522,20.993238 261.582319,24.8131367" id="Fill-9"></path>
                    <path d="M407.791238,116.81181 C413.953846,115.508848 417.83182,115.722418 421.540251,116.694722 C427.22139,118.185962 437.616048,119.950722 441.011618,120.718823 C443.770225,121.342671 444.986073,125.103557 438.612706,125.341481 C432.240276,125.581278 423.576656,124.289557 421.552428,124.153734 C414.343516,123.669456 406.892934,122.551025 405.617137,121.710797 C404.274833,120.824671 401.501238,118.141937 407.791238,116.81181" id="Fill-11"></path>
                    <path d="M45.7098,183.37303 C38.2966861,185.73541 33.403319,185.794423 28.5558506,184.784651 C21.1202557,183.235334 7.74030633,181.737537 3.32653418,180.982549 C-0.259187342,180.367132 -2.6122,175.273309 5.29830633,174.364701 C13.2097494,173.456094 24.3228633,174.456499 26.8810152,174.459309 C35.9989392,174.477106 45.5580532,175.346372 47.3359266,176.393613 C49.2093443,177.497056 53.2746608,180.961005 45.7098,183.37303" id="Fill-13"></path>
                    <path d="M59.8230987,262.726228 C54.5035291,266.428101 47.8435291,268.212532 41.653757,275.65562 C38.249757,279.746228 32.7231747,281.816354 34.3418076,276.579215 C36.0587949,271.018911 41.3193519,261.941266 55.3465671,256.094329 C66.6161114,251.398608 65.1445418,259.026228 59.8230987,262.726228" id="Fill-15"></path>
                    <path d="M90.2840278,113.780339 C85.7344329,107.933403 83.2362304,100.585858 74.4218,93.8190734 C69.5752684,90.0975291 66.8419519,84.0089215 72.8415722,85.7371494 C79.2121291,87.5730987 89.7950658,93.2935797 97.3983316,108.750213 C103.505673,121.168162 94.8317494,119.625403 90.2840278,113.780339" id="Fill-17"></path>
                    <path d="M93.0305519,361.745628 C94.9648557,359.218387 96.9141468,357.188539 101.814071,349.633982 C106.711185,342.081299 120.610071,330.811754 120.794603,330.655324 C123.181337,328.660134 125.311413,327.325324 127.432122,329.548134 C129.753286,331.97983 127.899539,334.790894 125.657058,337.452084 C123.555084,339.943729 118.539008,343.977197 113.973489,348.068742 C108.68483,352.808489 98.1103241,363.181603 96.6256405,364.585729 C95.1259696,366.004843 93.6899949,366.0114 92.8675646,365.240489 C92.0451342,364.470514 91.7903494,363.365197 93.0305519,361.745628" id="Fill-19"></path>
                    <path d="M188.88041,419.300205 C189.087423,417.648787 190.917752,402.908737 192.254435,397.146104 C193.084359,393.568813 196.73003,379.692408 196.73003,379.692408 C197.207752,377.357192 198.975322,375.786332 200.695119,375.792868 C202.41398,375.800382 203.37598,378.279851 203.284182,380.47737 C203.193322,382.675825 201.678663,390.359648 200.262359,397.638813 C199.263828,402.781344 194.895018,419.99899 194.621499,421.232635 C194.203727,423.122914 192.613195,424.422129 191.013296,424.146737 C189.150182,423.826382 188.638739,421.225142 188.88041,419.300205" id="Fill-21"></path>
                    <path d="M405.389985,206.411197 C405.389985,206.411197 406.383833,202.052691 411.000871,203.682565 C415.617909,205.312438 424.245934,208.429805 429.572061,210.780944 C432.891757,212.246894 440.777909,214.800362 441.603149,215.237805 C442.794643,215.86821 443.424111,217.225501 443.285478,218.069476 C443.070972,219.372438 441.954415,219.649704 440.110035,219.813628 C435.831149,220.190185 428.150137,218.033881 426.394744,217.445628 C424.638415,216.855501 411.013048,212.104514 408.531706,210.787501 C406.149656,209.523881 404.887909,208.266818 405.389985,206.411197" id="Fill-23"></path>
                    <path d="M370.351266,297.188684 C371.034127,295.63562 372.517873,294.697038 375.435722,295.685266 C378.354506,296.675367 386.342759,299.91919 390.689089,301.899392 C395.034481,303.879595 407.922658,310.148051 409.188152,310.886177 C410.594152,311.704861 412.060101,312.004608 411.677924,313.271975 C411.295747,314.539342 408.792861,313.84243 407.52643,313.46119 C406.259063,313.078076 392.088532,306.740304 385.726405,305.222835 C379.361468,303.707241 373.069595,301.132228 372.001747,300.631089 C370.66319,300.007241 369.585038,298.938456 370.351266,297.188684" id="Fill-25"></path>
                    <path d="M350.974038,40.3941646 C349.464063,39.6223165 348.615405,38.0870506 349.775051,35.2328987 C350.933759,32.3759367 354.640316,24.5918861 356.872494,20.3701392 C359.104671,16.1493291 366.12062,3.65082278 366.930873,2.43122785 C367.831987,1.07674684 368.216975,-0.370468354 369.459987,0.0866455696 C370.702063,0.542822785 369.860899,2.99887342 369.404722,4.24094937 C368.948544,5.48489873 361.789278,19.2573291 359.899,25.5211013 C358.013405,31.7848734 355.071203,37.9128228 354.510114,38.9506962 C353.807582,40.248038 352.676975,41.2653038 350.974038,40.3941646" id="Fill-27"></path>
                </g>
            </g>
        </g>
    </g>
</svg>